<?xml version="1.0" encoding="UTF-8"?>
<svg width="32px" height="32px" viewBox="0 0 32 32" version="1.1" xmlns="http://www.w3.org/2000/svg" xmlns:xlink="http://www.w3.org/1999/xlink">
    <!-- Generator: Sketch 48.2 (47327) - http://www.bohemiancoding.com/sketch -->
    <title>Combined Shape</title>
    <desc>Created with Sketch.</desc>
    <defs></defs>
    <g id="Artboard-3" stroke="none" stroke-width="1" fill="none" fill-rule="evenodd" transform="translate(-15.000000, -487.000000)">
        <g id="Group-47" transform="translate(0.000000, 478.000000)" fill="#7ED321">
            <g id="Group-46-Copy" transform="translate(15.000000, 9.000000)">
                <path d="M7.03097984,21.8545486 C7.03097984,23.1036633 8.07863388,24.1324161 9.32828741,24.1689869 L18.0217627,24.1689869 C17.8380377,25.1242574 16.9925536,25.8406889 15.9817042,25.8406889 L7.65580661,25.8406889 C7.15958306,25.8406889 5.79947304,27.2366405 5.79947304,27.2366405 C5.79947304,27.2366405 4.75181901,25.8406889 4.40272879,25.8406889 L3.42864141,25.8406889 C2.27065868,25.8406889 1.33333333,24.8854611 1.33333333,23.7466125 L1.33333333,13.6988602 C1.33333333,12.5415346 2.28914619,11.6047412 3.42864141,11.6047412 L7.03097984,11.6047412 L7.03097984,21.8545486 Z M28.5530841,4 C29.7110668,4 30.6483921,4.93679342 30.6666667,6.09411901 L30.6666667,20.881014 C30.6666667,22.0383396 29.7110668,22.9750905 28.5715716,22.9750905 L25.9983997,22.9750905 C25.3183234,22.9750905 23.5355139,25.4365786 23.5355139,25.4365786 C23.5355139,25.4365786 20.9807869,22.9750905 20.061949,22.9750905 L10.4311484,22.9750905 C9.27320826,22.9750905 8.33588292,22.0198626 8.33588292,20.881014 L8.33588292,6.09411901 C8.33588292,4.93679342 9.29165317,4 10.4311484,4 L28.5530841,4 Z M18.2974567,19.0624751 L20.1905949,19.0624751 L20.1905949,17.1888882 L18.2974567,17.1888882 L18.2974567,19.0624751 Z M22.616676,11.8803212 C22.837163,11.4944751 22.9290042,11.0536236 22.9290042,10.5761587 C22.9290042,9.73115433 22.616676,9.01472279 21.9916789,8.46360522 C21.3668521,7.91265796 20.5949346,7.63707789 19.6759264,7.63707789 C18.7568756,7.63707789 17.9666836,7.87587421 17.2866073,8.33503241 C16.6065309,8.79423319 16.2021912,9.41887567 16.0552708,10.2086193 L17.5070943,10.4291514 C17.6173804,10.0250411 17.8380377,9.69441316 18.1688534,9.43713982 C18.4996265,9.18003677 18.9222834,9.05150653 19.4001899,9.05150653 C19.9148583,9.05150653 20.3559601,9.19834349 20.7235378,9.49235801 C21.072841,9.78620223 21.2565234,10.1720484 21.2565234,10.6127296 C21.2565234,10.9985757 21.1829994,11.310897 21.0360364,11.568 C20.8889457,11.825103 20.521368,12.2292134 19.9516203,12.7435897 C19.4737565,13.1844838 19.1244533,13.6253353 18.9040089,14.0662293 C18.6835219,14.5070808 18.5731932,15.0580706 18.5731932,15.7377184 L19.8412916,15.7377184 C19.8412916,15.2601258 19.9331754,14.8559729 20.1537902,14.5070808 C20.3742772,14.1580184 20.741855,13.7721722 21.2565234,13.331491 C21.9549168,12.7620668 22.4145062,12.2844315 22.616676,11.8803212 Z" id="Combined-Shape"></path>
            </g>
        </g>
    </g>
</svg>